<svg width="71" height="31" viewBox="0 0 71 31" fill="none" xmlns="http://www.w3.org/2000/svg">
<path d="M9.23404 8.30664H53.2064V23.4321H9.23404V8.30664Z" fill="black"/>
<path d="M9.23392 0.743896C6.90149 0.743896 4.66458 1.54068 3.01529 2.95897C1.36601 4.37726 0.439453 6.30088 0.439453 8.30664L0.439453 23.4321C0.439453 25.4379 1.36601 27.3615 3.01529 28.7798C4.66458 30.1981 6.90149 30.9949 9.23392 30.9949H53.2063C55.5387 30.9949 57.7756 30.1981 59.4249 28.7798C61.0742 27.3615 62.0008 25.4379 62.0008 23.4321V8.30664C62.0008 6.30088 61.0742 4.37726 59.4249 2.95897C57.7756 1.54068 55.5387 0.743896 53.2063 0.743896H9.23392ZM53.2063 4.52527C54.3725 4.52527 55.491 4.92366 56.3156 5.63281C57.1402 6.34195 57.6035 7.30376 57.6035 8.30664V23.4321C57.6035 24.435 57.1402 25.3968 56.3156 26.106C55.491 26.8151 54.3725 27.2135 53.2063 27.2135H9.23392C8.06771 27.2135 6.94925 26.8151 6.12461 26.106C5.29997 25.3968 4.83669 24.435 4.83669 23.4321V8.30664C4.83669 7.30376 5.29997 6.34195 6.12461 5.63281C6.94925 4.92366 8.06771 4.52527 9.23392 4.52527H53.2063ZM70.7952 15.8694C70.7952 17.3737 70.1003 18.8164 68.8633 19.8801C67.6264 20.9439 65.9487 21.5414 64.1994 21.5414V10.1973C65.9487 10.1973 67.6264 10.7949 68.8633 11.8586C70.1003 12.9224 70.7952 14.3651 70.7952 15.8694Z" fill="black"/>
</svg>
