<svg width="59" height="61" viewBox="0 0 59 61" fill="none" xmlns="http://www.w3.org/2000/svg">
<path d="M16.6067 60.502C2.1919 53.5157 -1.60321 46.903 0.566565 37.8716C2.16839 31.2027 7.41347 25.777 7.9164 19.1209C10.1569 22.6272 11.0931 25.1555 11.3435 28.8196C18.4695 21.3116 23.1786 10.9179 23.4574 0C23.4574 0 42.0181 9.37831 43.236 23.5443C44.8339 20.6245 45.6382 15.987 44.0404 12.9815C48.8338 15.9872 76.8902 42.6697 40.2401 60.502C47.1307 48.9643 42.0178 33.3965 30.0538 26.2065C30.8528 29.2981 29.452 40.8289 24.1591 45.8956C25.6256 37.4296 22.7637 33.8498 22.7637 33.8498C22.7637 33.8498 21.7814 38.5918 17.9702 43.3821C14.49 47.7565 12.0785 52.3993 16.6067 60.502Z" fill="black"/>
</svg>
