<svg width="844" height="268" viewBox="0 0 844 268" fill="none" xmlns="http://www.w3.org/2000/svg">
<path d="M432.244 -673.144C462.129 -690.945 497.667 -696.711 531.647 -689.273L910.333 -606.379C952.262 -597.2 987.467 -568.901 1005.44 -529.924L1127.03 -266.306C1147.43 -222.074 1142.81 -170.336 1114.89 -130.419L923.28 143.591C902.069 173.924 869.486 194.384 832.95 200.312L427.668 266.07C391.132 271.998 353.752 262.89 324.038 240.82L55.6198 41.4511C16.5165 12.407 -4.22466 -35.2154 1.1434 -83.6283L33.1366 -372.165C37.8669 -414.826 62.3178 -452.805 99.1946 -474.77L432.244 -673.144Z" fill="#7986C7" fill-opacity="0.9"/>
</svg>
