<svg width="60" height="45" viewBox="0 0 60 45" fill="none" xmlns="http://www.w3.org/2000/svg">
<path d="M50.7145 10.5058C50.2029 9.74376 49.4684 9.11015 48.5838 8.6679C47.6993 8.22565 46.6955 7.99017 45.6724 7.98486H38.5488V2.94303C38.5488 2.27444 38.24 1.63324 37.6902 1.16048C37.1405 0.687715 36.3948 0.422119 35.6173 0.422119H6.30244C4.74748 0.422119 3.2562 0.95331 2.15668 1.89884C1.05716 2.84436 0.439453 4.12677 0.439453 5.46395V30.6731C0.440508 31.5572 0.711914 32.4256 1.22645 33.1911C1.74098 33.9565 2.48054 34.5922 3.37094 35.0343C3.26598 37.3743 4.24631 39.6544 6.09625 41.3729C7.9462 43.0914 10.5142 44.1075 13.2354 44.1978C15.9566 44.288 18.608 43.445 20.6064 41.8542C22.6048 40.2633 23.7864 38.055 23.8914 35.7149H32.979C33.3032 37.8242 34.5077 39.7602 36.3682 41.1626C38.2287 42.5651 40.6185 43.3382 43.0926 43.3382C45.5668 43.3382 47.9566 42.5651 49.8171 41.1626C51.6776 39.7602 52.8821 37.8242 53.2063 35.7149C54.7613 35.7149 56.2525 35.1837 57.352 34.2382C58.4516 33.2927 59.0693 32.0103 59.0693 30.6731V23.1103C59.0647 22.6504 58.9234 22.1992 58.6589 21.7995L50.7145 10.5058ZM38.5488 13.0267H45.6724L50.949 20.5894H38.5488V13.0267ZM13.6312 38.2358C12.7615 38.2358 11.9113 38.014 11.1882 37.5985C10.4651 37.183 9.90146 36.5925 9.56865 35.9015C9.23583 35.2106 9.14875 34.4503 9.31842 33.7167C9.48809 32.9832 9.90688 32.3095 10.5218 31.7806C11.1368 31.2518 11.9203 30.8916 12.7733 30.7457C13.6263 30.5998 14.5104 30.6747 15.3139 30.9609C16.1174 31.2471 16.8042 31.7318 17.2873 32.3536C17.7705 32.9755 18.0284 33.7066 18.0284 34.4544C18.0284 35.4573 17.5651 36.4191 16.7405 37.1283C15.9158 37.8374 14.7974 38.2358 13.6312 38.2358ZM42.9461 38.2358C42.0764 38.2358 41.2262 38.014 40.5031 37.5985C39.78 37.183 39.2164 36.5925 38.8836 35.9015C38.5507 35.2106 38.4637 34.4503 38.6333 33.7167C38.803 32.9832 39.2218 32.3095 39.8368 31.7806C40.4517 31.2518 41.2352 30.8916 42.0882 30.7457C42.9412 30.5998 43.8253 30.6747 44.6288 30.9609C45.4323 31.2471 46.1191 31.7318 46.6022 32.3536C47.0854 32.9755 47.3433 33.7066 47.3433 34.4544C47.3433 35.4573 46.88 36.4191 46.0554 37.1283C45.2307 37.8374 44.1123 38.2358 42.9461 38.2358Z" fill="black"/>
</svg>
